<svg xmlns="http://www.w3.org/2000/svg" xmlns:xlink="http://www.w3.org/1999/xlink" width="500" zoomAndPan="magnify" viewBox="0 0 375 374.999991" height="500" preserveAspectRatio="xMidYMid meet" version="1.0"><defs><g/></defs><g fill="#5d5d5d" fill-opacity="1"><g transform="translate(0.0159844, 252.911849)"><g><path d="M 68.953125 -13.90625 C 81.878906 -13.90625 91.300781 -17.367188 97.21875 -24.296875 C 103.144531 -31.234375 106.300781 -42.921875 106.6875 -59.359375 L 106.6875 -63.6875 C 106.6875 -81.601562 103.648438 -94.492188 97.578125 -102.359375 C 91.503906 -110.234375 81.882812 -114.171875 68.71875 -114.171875 C 57.34375 -114.171875 48.632812 -109.75 42.59375 -100.90625 C 36.550781 -92.0625 33.53125 -79.578125 33.53125 -63.453125 C 33.53125 -47.328125 36.507812 -35.035156 42.46875 -26.578125 C 48.4375 -18.128906 57.265625 -13.90625 68.953125 -13.90625 Z M 66.03125 2.34375 C 49.507812 2.34375 36.613281 -3.457031 27.34375 -15.0625 C 18.070312 -26.675781 13.4375 -42.882812 13.4375 -63.6875 C 13.4375 -84.644531 18.109375 -101.003906 27.453125 -112.765625 C 36.804688 -124.535156 49.820312 -130.421875 66.5 -130.421875 C 84.019531 -130.421875 97.492188 -123.796875 106.921875 -110.546875 L 107.984375 -110.546875 L 110.78125 -128.078125 L 126.09375 -128.078125 L 126.09375 57.5 L 106.6875 57.5 L 106.6875 2.6875 C 106.6875 -5.101562 107.117188 -11.722656 107.984375 -17.171875 L 106.453125 -17.171875 C 97.492188 -4.160156 84.019531 2.34375 66.03125 2.34375 Z M 66.03125 2.34375 "/></g></g></g><g fill="#5d5d5d" fill-opacity="1"><g transform="translate(146.666384, 252.911849)"><g><path d="M 103.1875 -34.9375 C 103.1875 -23.019531 98.742188 -13.828125 89.859375 -7.359375 C 80.984375 -0.890625 68.519531 2.34375 52.46875 2.34375 C 35.488281 2.34375 22.242188 -0.34375 12.734375 -5.71875 L 12.734375 -23.71875 C 18.890625 -20.601562 25.492188 -18.148438 32.546875 -16.359375 C 39.597656 -14.566406 46.394531 -13.671875 52.9375 -13.671875 C 63.0625 -13.671875 70.847656 -15.285156 76.296875 -18.515625 C 81.753906 -21.753906 84.484375 -26.6875 84.484375 -33.3125 C 84.484375 -38.289062 82.320312 -42.550781 78 -46.09375 C 73.675781 -49.644531 65.242188 -53.832031 52.703125 -58.65625 C 40.785156 -63.101562 32.3125 -66.976562 27.28125 -70.28125 C 22.257812 -73.59375 18.519531 -77.351562 16.0625 -81.5625 C 13.613281 -85.769531 12.390625 -90.796875 12.390625 -96.640625 C 12.390625 -107.078125 16.632812 -115.316406 25.125 -121.359375 C 33.613281 -127.398438 45.257812 -130.421875 60.0625 -130.421875 C 73.851562 -130.421875 87.332031 -127.613281 100.5 -122 L 93.609375 -106.21875 C 80.753906 -111.519531 69.101562 -114.171875 58.65625 -114.171875 C 49.46875 -114.171875 42.535156 -112.726562 37.859375 -109.84375 C 33.179688 -106.96875 30.84375 -102.992188 30.84375 -97.921875 C 30.84375 -94.492188 31.71875 -91.570312 33.46875 -89.15625 C 35.226562 -86.75 38.054688 -84.453125 41.953125 -82.265625 C 45.847656 -80.085938 53.328125 -76.929688 64.390625 -72.796875 C 79.578125 -67.265625 89.835938 -61.691406 95.171875 -56.078125 C 100.515625 -50.472656 103.1875 -43.425781 103.1875 -34.9375 Z M 103.1875 -34.9375 "/></g></g></g><g fill="#5d5d5d" fill-opacity="1"><g transform="translate(260.831675, 252.911849)"><g><path d="M 103.1875 -34.9375 C 103.1875 -23.019531 98.742188 -13.828125 89.859375 -7.359375 C 80.984375 -0.890625 68.519531 2.34375 52.46875 2.34375 C 35.488281 2.34375 22.242188 -0.34375 12.734375 -5.71875 L 12.734375 -23.71875 C 18.890625 -20.601562 25.492188 -18.148438 32.546875 -16.359375 C 39.597656 -14.566406 46.394531 -13.671875 52.9375 -13.671875 C 63.0625 -13.671875 70.847656 -15.285156 76.296875 -18.515625 C 81.753906 -21.753906 84.484375 -26.6875 84.484375 -33.3125 C 84.484375 -38.289062 82.320312 -42.550781 78 -46.09375 C 73.675781 -49.644531 65.242188 -53.832031 52.703125 -58.65625 C 40.785156 -63.101562 32.3125 -66.976562 27.28125 -70.28125 C 22.257812 -73.59375 18.519531 -77.351562 16.0625 -81.5625 C 13.613281 -85.769531 12.390625 -90.796875 12.390625 -96.640625 C 12.390625 -107.078125 16.632812 -115.316406 25.125 -121.359375 C 33.613281 -127.398438 45.257812 -130.421875 60.0625 -130.421875 C 73.851562 -130.421875 87.332031 -127.613281 100.5 -122 L 93.609375 -106.21875 C 80.753906 -111.519531 69.101562 -114.171875 58.65625 -114.171875 C 49.46875 -114.171875 42.535156 -112.726562 37.859375 -109.84375 C 33.179688 -106.96875 30.84375 -102.992188 30.84375 -97.921875 C 30.84375 -94.492188 31.71875 -91.570312 33.46875 -89.15625 C 35.226562 -86.75 38.054688 -84.453125 41.953125 -82.265625 C 45.847656 -80.085938 53.328125 -76.929688 64.390625 -72.796875 C 79.578125 -67.265625 89.835938 -61.691406 95.171875 -56.078125 C 100.515625 -50.472656 103.1875 -43.425781 103.1875 -34.9375 Z M 103.1875 -34.9375 "/></g></g></g></svg>