<svg xmlns="http://www.w3.org/2000/svg" xmlns:xlink="http://www.w3.org/1999/xlink" width="500" zoomAndPan="magnify" viewBox="0 0 375 374.999991" height="500" preserveAspectRatio="xMidYMid meet" version="1.0"><defs><g/></defs><g fill="#83d9fe" fill-opacity="1"><g transform="translate(-11.35405, 265.032152)"><g><path d="M 72.640625 -14.65625 C 86.273438 -14.65625 96.207031 -18.304688 102.4375 -25.609375 C 108.675781 -32.910156 112.003906 -45.222656 112.421875 -62.546875 L 112.421875 -67.109375 C 112.421875 -85.984375 109.21875 -99.566406 102.8125 -107.859375 C 96.40625 -116.148438 86.269531 -120.296875 72.40625 -120.296875 C 60.414062 -120.296875 51.238281 -115.632812 44.875 -106.3125 C 38.519531 -97 35.34375 -83.847656 35.34375 -66.859375 C 35.34375 -49.867188 38.476562 -36.921875 44.75 -28.015625 C 51.03125 -19.109375 60.328125 -14.65625 72.640625 -14.65625 Z M 69.5625 2.46875 C 52.164062 2.46875 38.582031 -3.644531 28.8125 -15.875 C 19.039062 -28.113281 14.15625 -45.191406 14.15625 -67.109375 C 14.15625 -89.191406 19.082031 -106.425781 28.9375 -118.8125 C 38.789062 -131.207031 52.5 -137.40625 70.0625 -137.40625 C 88.53125 -137.40625 102.734375 -130.429688 112.671875 -116.484375 L 113.765625 -116.484375 L 116.734375 -134.953125 L 132.859375 -134.953125 L 132.859375 60.578125 L 112.421875 60.578125 L 112.421875 2.828125 C 112.421875 -5.378906 112.867188 -12.351562 113.765625 -18.09375 L 112.171875 -18.09375 C 102.734375 -4.382812 88.53125 2.46875 69.5625 2.46875 Z M 69.5625 2.46875 "/></g></g></g><g fill="#bbeafe" fill-opacity="1"><g transform="translate(143.170764, 265.032152)"><g><path d="M 108.71875 -36.8125 C 108.71875 -24.257812 104.039062 -14.570312 94.6875 -7.75 C 85.332031 -0.9375 72.195312 2.46875 55.28125 2.46875 C 37.382812 2.46875 23.429688 -0.363281 13.421875 -6.03125 L 13.421875 -25 C 19.910156 -21.71875 26.867188 -19.128906 34.296875 -17.234375 C 41.722656 -15.347656 48.882812 -14.40625 55.78125 -14.40625 C 66.445312 -14.40625 74.65625 -16.109375 80.40625 -19.515625 C 86.15625 -22.921875 89.03125 -28.113281 89.03125 -35.09375 C 89.03125 -40.34375 86.75 -44.832031 82.1875 -48.5625 C 77.632812 -52.300781 68.75 -56.71875 55.53125 -61.8125 C 42.96875 -66.488281 34.039062 -70.570312 28.75 -74.0625 C 23.457031 -77.550781 19.515625 -81.507812 16.921875 -85.9375 C 14.335938 -90.375 13.046875 -95.671875 13.046875 -101.828125 C 13.046875 -112.828125 17.519531 -121.503906 26.46875 -127.859375 C 35.414062 -134.222656 47.691406 -137.40625 63.296875 -137.40625 C 77.816406 -137.40625 92.015625 -134.453125 105.890625 -128.546875 L 98.625 -111.921875 C 85.082031 -117.503906 72.8125 -120.296875 61.8125 -120.296875 C 52.125 -120.296875 44.816406 -118.773438 39.890625 -115.734375 C 34.960938 -112.703125 32.5 -108.519531 32.5 -103.1875 C 32.5 -99.570312 33.421875 -96.488281 35.265625 -93.9375 C 37.117188 -91.394531 40.097656 -88.972656 44.203125 -86.671875 C 48.304688 -84.378906 56.1875 -81.054688 67.84375 -76.703125 C 83.851562 -70.878906 94.664062 -65.007812 100.28125 -59.09375 C 105.90625 -53.1875 108.71875 -45.757812 108.71875 -36.8125 Z M 108.71875 -36.8125 "/></g></g><g transform="translate(263.471403, 265.032152)"><g><path d="M 108.71875 -36.8125 C 108.71875 -24.257812 104.039062 -14.570312 94.6875 -7.75 C 85.332031 -0.9375 72.195312 2.46875 55.28125 2.46875 C 37.382812 2.46875 23.429688 -0.363281 13.421875 -6.03125 L 13.421875 -25 C 19.910156 -21.71875 26.867188 -19.128906 34.296875 -17.234375 C 41.722656 -15.347656 48.882812 -14.40625 55.78125 -14.40625 C 66.445312 -14.40625 74.65625 -16.109375 80.40625 -19.515625 C 86.15625 -22.921875 89.03125 -28.113281 89.03125 -35.09375 C 89.03125 -40.34375 86.75 -44.832031 82.1875 -48.5625 C 77.632812 -52.300781 68.75 -56.71875 55.53125 -61.8125 C 42.96875 -66.488281 34.039062 -70.570312 28.75 -74.0625 C 23.457031 -77.550781 19.515625 -81.507812 16.921875 -85.9375 C 14.335938 -90.375 13.046875 -95.671875 13.046875 -101.828125 C 13.046875 -112.828125 17.519531 -121.503906 26.46875 -127.859375 C 35.414062 -134.222656 47.691406 -137.40625 63.296875 -137.40625 C 77.816406 -137.40625 92.015625 -134.453125 105.890625 -128.546875 L 98.625 -111.921875 C 85.082031 -117.503906 72.8125 -120.296875 61.8125 -120.296875 C 52.125 -120.296875 44.816406 -118.773438 39.890625 -115.734375 C 34.960938 -112.703125 32.5 -108.519531 32.5 -103.1875 C 32.5 -99.570312 33.421875 -96.488281 35.265625 -93.9375 C 37.117188 -91.394531 40.097656 -88.972656 44.203125 -86.671875 C 48.304688 -84.378906 56.1875 -81.054688 67.84375 -76.703125 C 83.851562 -70.878906 94.664062 -65.007812 100.28125 -59.09375 C 105.90625 -53.1875 108.71875 -45.757812 108.71875 -36.8125 Z M 108.71875 -36.8125 "/></g></g></g></svg>